<svg xmlns="http://www.w3.org/2000/svg" width="107" height="28" viewBox="0 0 107 28">

<g>
    <path d="M57.0675.9367C56.9705 1.0338 56.9818 25.8977 57.0791 25.9784 57.1705 26.0546 69.5946 26.0197 70.5769 25.9409 76.4453 25.4687 79.6828 22.8513 79.5173 18.713 79.4155 16.175 78.1158 14.2565 75.8678 13.3269 75.6591 13.2405 75.4159 13.1402 75.3272 13.1036 75.101 13.0104 75.1194 12.9765 75.5257 12.7348 77.3353 11.6596 78.1611 10.1807 78.1578 8.0214 78.1512 3.6623 75.59 1.1916 70.8002.9239 69.5395.8534 57.139.865 57.0675.9367 M69.5103 7.3177C71.3395 7.964 71.1443 10.1325 69.2371 10.351 68.5828 10.4257 65.1809 10.4195 65.1047 10.3433 65.0172 10.2558 65.0196 7.2469 65.1071 7.2094 65.3333 7.1123 69.1981 7.2076 69.5103 7.3177M70.1438 16.2328C71.141 16.4676 71.569 16.9892 71.569 17.9688 71.569 18.5969 71.4672 18.8696 71.1118 19.1905 70.5584 19.6903 70.2462 19.7343 67.3769 19.7183L65.0699 19.7052 65.0568 17.9938C65.0497 17.0526 65.0544 16.2545 65.0678 16.2203 65.1056 16.1214 69.7199 16.1328 70.1438 16.2328" fill="#FFFDF7" stroke-width="0"/>
</g>

<g>
    <path d="M92.6296.5316C85.6622.8957 81.7933 6.2886 82.3541 14.8554 82.8203 21.9752 86.4245 26.0016 92.67 26.3796 98.603 26.7386 102.9389 23.499 104.4392 17.5872 104.5202 17.2681 104.5863 16.9505 104.5863 16.8811 104.5863 16.7323 104.6381 16.7475 103.5444 16.5763 102.4713 16.4084 100.1113 16.0354 99.3272 15.9098 98.9864 15.855 98.2848 15.7428 97.7686 15.6601 96.6961 15.488 96.7735 15.4639 96.6717 16.0015 96.2278 18.3403 94.8279 19.6185 93.099 19.2634 91.2796 18.8898 90.3497 16.9002 90.3479 13.3778 90.3464 9.9441 91.3028 7.9675 93.1475 7.5922 94.8097 7.2543 96.0695 8.4688 96.6738 10.9919L96.7613 11.3581 97.0396 11.3292C97.1926 11.3131 97.7311 11.2339 98.236 11.1533 98.7408 11.0723 99.7342 10.9139 100.4435 10.8017 101.6339 10.613 103.3929 10.3314 104.2052 10.1995 104.6256 10.1313 104.6321 10.1156 104.4883 9.5151 103.0288 3.4131 98.7998.2095 92.6296.5316" fill="#FFFDF7" stroke-width="0"/></g>

<g>
    <path id="Vector" d="M6.6181.7284C6.4928.779 5.8073 1.4761 5.6388 1.7247 4.7577 3.0223 4.3633 4.7425 4.6321 6.1157 4.8413 7.1861 4.7553 7.159 4.3031 6.0121 4.2064 5.7665 4.0281 5.3295 3.9069 5.0414 3.7858 4.7529 3.6509 4.3624 3.6078 4.1731 3.5643 3.984 3.4723 3.6411 3.4033 3.411 3.3342 3.1812 3.2773 2.9243 3.2767 2.8407 3.275 2.4915 3.0987 2.482 2.9258 2.821 2.3355 3.9781 2.3373 5.6332 2.9305 7.2772 3.2842 8.2578 3.2842 8.2575 3.1106 8.1908 2.7412 8.0491 1.9941 6.7102 1.9446 6.1008 1.8952 5.493 1.6735 5.6364 1.5178 6.3771 1.3192 7.3216 1.4916 8.1819 2.1628 9.5943 2.4596 10.2186 2.4617 10.3171 2.1765 10.2025 1.9961 10.1301 1.5749 9.8557 1.2737 9.6146.7462 9.1922.7819 9.6601 1.36 10.7502 1.8946 11.7578 2.4912 12.5401 3.5542 13.6275 4.8767 14.9808 5.4849 15.7458 6.2791 17.0544 7.3129 18.7583 9.1877 20.477 10.5239 20.9462 10.8493 21.0605 11.6102 21.4614 11.8194 21.6287 12.4231 22.1119 12.0198 22.4834 9.4666 23.7958 8.2059 24.4438 8.1306 24.5078 8.4384 24.6671 8.5209 24.7097 8.7802 24.8683 9.0141 25.0193 10.8288 26.19 12.2963 26.2725 13.868 25.2919 14.6676 24.793 15.2945 24.835 15.8696 25.4256 16.083 25.6447 16.1452 25.7649 16.2527 26.1671 16.2911 26.31 16.364 26.3079 16.6307 26.1555 17.3916 25.7203 18.1813 26.4162 17.7643 27.1548 17.6038 27.4393 17.5771 27.5929 17.6812 27.6331 17.7503 27.6593 18.4796 27.3578 18.6079 27.2497 18.7496 27.1304 18.8448 27.1304 19.0211 27.25 19.3009 27.4402 19.3875 27.3751 19.4991 26.8907 19.6105 26.4085 19.8069 26.3472 20.2734 26.6493 20.764 26.9672 20.8146 26.9577 21.5498 26.4153 22.0008 26.0828 21.991 26.0099 21.4683 25.8006 21.1745 25.6831 20.9622 25.6363 20.6002 25.6089 19.7057 25.5423 19.5372 25.3884 19.2068 24.3385 18.7395 22.8531 18.7448 22.7977 19.3503 22.8915 19.7909 22.9596 20.2302 23.1647 20.6377 23.4925 20.9944 23.7797 21.0965 23.8044 21.1786 23.6246 21.2584 23.4493 21.3051 23.4675 21.482 23.7431 21.9728 24.5084 22.6893 23.4219 22.2494 22.5795 22.1648 22.4176 22.0675 22.1622 22.0329 22.0121 21.9058 21.4579 21.3879 20.7363 20.8527 20.3669 20.5961 20.1898 20.5928 20.1439 20.8205 19.9257 21.2242 19.5391 22.0919 18.5192 22.5908 17.8447 22.8837 17.4491 23.4207 16.7233 23.7848 16.2322 24.5316 15.2246 24.9692 14.7367 25.6524 14.1496 26.3442 13.5552 27.4253 12.7845 27.5682 12.7839 27.5926 12.7839 27.6846 12.7399 27.7727 12.6863 27.9546 12.5752 27.9469 12.4368 27.759 12.4368 27.5688 12.4368 27.562 12.3353 27.7424 12.1969 28.3958 11.6953 29.1769 10.7291 29.5737 9.9316 29.9082 9.2594 29.9059 9.0645 29.5653 9.2404 29.2337 9.4122 29.2153 9.3062 29.4239 8.4322 29.6201 7.6121 29.5829 7.5151 29.1429 7.699 28.8589 7.8175 28.8524 7.7604 29.103 7.3454 29.587 6.5429 29.593 5.1453 29.117 4.1088 29.0337 3.9278 28.9464 3.7292 28.9229 3.6679 28.8131 3.3821 28.711 3.5134 28.5818 4.1061 28.2808 5.4894 27.948 6.3431 27.3598 7.243 26.6198 8.3753 25.8069 8.9603 22.8992 10.4519 19.5736 12.1585 18.6299 12.8961 17.2946 14.8334 16.8945 15.4139 16.2333 16.1271 15.9717 16.2605 15.0453 16.7332 14.0579 15.7306 13.941 14.1982 13.8627 13.1727 13.7162 12.9973 11.9028 11.762 10.9606 11.1199 9.0766 9.5038 8.0839 8.4861 7.451 7.8372 6.9 6.979 6.5363 6.0746 5.9234 4.5514 5.982 2.4451 6.6756 1.0764 6.8587.715 6.8459.6367 6.6181.7284 M7.1831 1.7196C6.8396 1.9926 6.8247 2.0783 6.8265 3.7548 6.8298 6.5982 7.1912 7.187 10.5415 9.8075 10.838 10.0394 11.2616 10.3748 11.483 10.5528 11.7042 10.7309 12.354 11.2417 12.9271 11.6882 13.5001 12.1344 13.9993 12.5237 14.0365 12.5532 14.2434 12.7178 14.244 12.6994 14.2303 7.0724 14.2228 4.1335 14.1996 1.7116 14.1785 1.6902 14.1571 1.669 12.6056 1.6422 10.7305 1.6309L7.321 1.6101 7.1831 1.7196M16.9763 1.6887C16.8781 1.8071 16.9237 14.4408 17.0225 14.4595 17.0698 14.4688 17.1445 14.3926 17.2166 14.2619 18.0643 12.7271 19.1136 11.8492 21.6356 10.5647 24.6019 9.054 27.1946 7.0671 27.7986 5.8412 27.9302 5.5742 28.0049 1.8396 27.8814 1.6911 27.7962 1.5887 17.0615 1.5863 16.9763 1.6887M3.2404 1.7536C3.1327 1.797 3.1726 1.903 3.347 2.0361 3.7637 2.3537 4.0614 3.052 4.1504 3.9203 4.2043 4.4463 4.3469 4.4395 4.4948 3.9037 4.6782 3.2408 4.8833 2.6561 5.075 2.2507 5.2471 1.886 5.2697 1.8054 5.2098 1.7676 5.1363 1.7211 3.3524 1.7083 3.2404 1.7536M27.4104 13.2269C26.1051 14.0928 25.2154 15.0218 23.8419 16.9526 23.3031 17.7101 22.3178 18.9684 21.8615 19.4819 21.4322 19.965 21.4016 20.0781 21.6382 20.3035 22.4693 21.095 23.001 22.7944 22.6581 23.5636 22.1764 24.6442 21.1938 24.6055 19.8817 23.455 19.4786 23.1013 19.3839 23.2442 19.6015 23.8774 20.3273 25.99 22.3208 25.7521 24.4998 23.293 26.9479 20.53 27.7864 18.3195 28.0344 13.9767 28.1037 12.7616 28.1064 12.7649 27.4104 13.2269 M14.1166 25.4035C13.7757 25.5679 13.1581 26.0063 12.7875 26.3472 12.2171 26.872 13.234 27.0533 16.3994 26.9919 17.7369 26.966 17.8137 26.9282 17.4365 26.4799 17.2047 26.2043 17.1529 26.1992 16.7415 26.4109L16.3724 26.6005 16.1908 26.5017C16.0595 26.4302 15.9586 26.3097 15.8282 26.0677 15.3972 25.2675 14.8441 25.0532 14.1166 25.4035 M3.2497 13.9306C3.0865 14.1943 3.272 16.7296 3.5268 17.7206 4.0614 19.8001 5.4269 22.1458 6.9075 23.5279 7.6347 24.2069 7.9282 24.1414 10.4963 22.7289 11.8679 21.9743 11.9013 21.8919 10.963 21.5707 8.873 20.8548 7.382 19.4596 5.0726 16.0586 3.8513 14.2598 3.3836 13.7139 3.2497 13.9306" fill="#FFFDF7" stroke-width="0"/>
</g>

  <g><path d="M41.355.5316C34.2382.8948 30.3503 6.3107 30.9629 15.0075 31.4585 22.0407 35.1018 26.0108 41.3994 26.3802 44.1785 26.5433 46.1646 25.8608 48.276 24.017 48.5626 23.7669 48.8395 23.5148 48.8916 23.4568 49.0702 23.2579 49.1029 23.3171 49.5217 24.6043 49.7459 25.2934 49.9626 25.8962 50.0034 25.9438 50.0838 26.0382 53.3805 26.0802 53.5243 25.9888 53.5895 25.9474 53.6279 23.8771 53.7103 15.8979L53.7425 12.7851 53.6106 12.7351C53.468 12.6809 42.5356 12.6625 42.335 12.7163L42.2234 12.7461 42.2234 14.943C42.2234 16.9002 42.232 17.1428 42.3019 17.1696 42.3451 17.1862 42.8473 17.1996 43.4182 17.1996 44.5922 17.1996 44.5324 17.1731 44.3392 17.6095 43.7492 18.9434 42.9018 19.4887 41.7727 19.261 39.8625 18.8758 38.9692 16.9808 38.9772 13.3299 38.9849 9.8048 39.9318 7.9309 41.8798 7.5859 43.5423 7.2912 44.9003 8.4569 45.3969 10.6052 45.5341 11.1985 45.5746 11.2958 45.6826 11.2955 45.9738 11.2952 53.4097 9.9489 53.4466 9.8902 53.4668 9.8584 53.4728 9.7988 53.4603 9.7578 53.4475 9.717 53.3927 9.4714 53.3382 9.2121 52.0972 3.3092 47.8083.2024 41.355.5316" fill="#FFFDF7" stroke-width="0"/>
</g>


</svg>
