<svg xmlns="http://www.w3.org/2000/svg" aria-hidden="true" class="a-logo is-inview" data-scroll="" data-scroll-repeat="" focusable="false" viewBox="0 0 164 48"><g>
    <path d="M109.1159 11.4872C111.9873 12.5017 111.6809 15.9058 108.6871 16.2488 107.66 16.3661 102.3197 16.3562 102.2 16.2367 102.0627 16.0994 102.0665 11.376 102.2038 11.3172 102.5589 11.1648 108.6259 11.3144 109.1159 11.4872M110.1104 25.482C111.6757 25.8505 112.3475 26.6693 112.3475 28.2071 112.3475 29.193 112.1877 29.6211 111.6299 30.1248 110.7612 30.9094 110.2711 30.9785 105.7669 30.9533L102.1454 30.9328 102.1249 28.2463C102.1137 26.7688 102.1211 25.5159 102.1422 25.4623 102.2015 25.3071 109.4449 25.325 110.1104 25.482M89.5835 1.4704C89.4312 1.6229 89.4489 40.6537 89.6017 40.7804 89.745 40.9 109.2482 40.8452 110.7902 40.7215 120.0023 39.9802 125.0845 35.8715 124.8247 29.3753 124.6649 25.3912 122.6246 22.3796 119.0958 20.9202 118.7681 20.7847 118.3864 20.6272 118.2471 20.5698 117.8921 20.4235 117.921 20.3703 118.5587 19.9909 121.3994 18.303 122.6957 15.9815 122.6906 12.5918 122.6802 5.749 118.6597 1.8706 111.1407 1.4503 109.1617 1.3397 89.6956 1.3578 89.5835 1.4704" fill="currentColor" stroke-width="0"/>
</g>

<g>
    <path d="M145.4081.8345C134.4708 1.4061 128.3975 9.8717 129.2779 23.3197 130.0097 34.4962 135.6674 40.8168 145.4715 41.4102 154.7851 41.9737 161.5914 36.8883 163.9465 27.608 164.0737 27.1072 164.1775 26.6086 164.1775 26.4996 164.1775 26.266 164.2588 26.2898 162.542 26.0212 160.8574 25.7576 157.1527 25.1721 155.9219 24.9749 155.3869 24.8889 154.2856 24.7127 153.4752 24.583 151.7917 24.3128 151.9131 24.2749 151.7533 25.1188 151.0565 28.7902 148.8589 30.7966 146.145 30.2393 143.2889 29.6528 141.8292 26.5296 141.8263 21.0002 141.824 15.6101 143.3254 12.5073 146.221 11.9181 148.8304 11.3876 150.8081 13.2942 151.7567 17.2548L151.8939 17.8297 152.3308 17.7843C152.571 17.7591 153.4163 17.6347 154.2089 17.5082 155.0013 17.3811 156.5608 17.1324 157.6742 16.9563 159.5428 16.6601 162.3041 16.218 163.5792 16.011 164.2392 15.9039 164.2494 15.8792 164.0237 14.9367 161.7326 5.3579 155.094.3289 145.4081.8345" fill="currentColor" stroke-width="0"/></g>

<g>
    <path id="Vector" d="M10.389 1.1435C10.1923 1.2228 9.1162 2.3171 8.8517 2.7074 7.4686 4.7443 6.8495 7.4446 7.2714 9.6003 7.5998 11.2806 7.4648 11.238 6.755 9.4377 6.6031 9.0521 6.3232 8.3662 6.133 7.9139 5.9429 7.461 5.7311 6.848 5.6635 6.5509 5.5951 6.254 5.4508 5.7157 5.3424 5.3545 5.234 4.9937 5.1447 4.5905 5.1437 4.4593 5.1411 3.911 4.8643 3.8962 4.5929 4.4284 3.6662 6.2447 3.669 8.8429 4.6002 11.4236 5.1555 12.963 5.1555 12.9625 4.883 12.8578 4.3031 12.6354 3.1303 10.5335 3.0526 9.577 2.975 8.6228 2.627 8.8479 2.3827 10.0107 2.0708 11.4933 2.3414 12.8437 3.3952 15.061 3.861 16.041 3.8643 16.1956 3.4166 16.0156 3.1334 15.9021 2.4722 15.4713 1.9994 15.0928 1.1714 14.4297 1.2274 15.1643 2.1349 16.8755 2.9741 18.4572 3.9106 19.6852 5.5793 21.3921 7.6554 23.5166 8.61 24.7175 9.8568 26.7717 11.4796 29.4464 14.4227 32.1444 16.5202 32.8809 17.031 33.0603 18.2254 33.6897 18.5539 33.9523 19.5016 34.7108 18.8685 35.294 14.8604 37.3542 12.8814 38.3714 12.7633 38.4718 13.2465 38.722 13.3759 38.7888 13.783 39.0378 14.1502 39.2748 16.9988 41.1125 19.3025 41.242 21.7697 39.7027 23.0249 38.9196 24.0089 38.9855 24.9117 39.9126 25.2468 40.2566 25.3444 40.4452 25.5132 41.0766 25.5735 41.3009 25.6879 41.2976 26.1066 41.0584 27.301 40.3752 28.5406 41.4676 27.8861 42.6271 27.6341 43.0736 27.5922 43.3147 27.7556 43.3779 27.8641 43.419 29.0089 42.9458 29.2103 42.776 29.4327 42.5888 29.5822 42.5888 29.8589 42.7765 30.2981 43.0751 30.434 42.9729 30.6094 42.2125 30.7841 41.4555 31.0925 41.3592 31.8248 41.8335 32.5949 42.3325 32.6743 42.3176 33.8285 41.4662 34.5364 40.9443 34.521 40.8298 33.7005 40.5013 33.2392 40.3169 32.906 40.2433 32.3377 40.2003 30.9336 40.0958 30.669 39.8543 30.1505 38.2062 29.4169 35.8744 29.4252 35.7874 30.3757 35.9347 31.0674 36.0415 31.7569 36.3635 32.3967 36.878 32.9566 37.3289 33.1168 37.3677 33.2457 37.0854 33.371 36.8103 33.4444 36.8389 33.722 37.2714 34.4925 38.4728 35.6172 36.7672 34.9267 35.4448 34.7939 35.1907 34.6411 34.7898 34.5868 34.5542 34.3873 33.6841 33.5742 32.5514 32.7342 31.9715 32.3313 31.6936 32.3262 31.6215 32.6836 31.279 33.3173 30.6721 34.6794 29.071 35.4626 28.0122 35.9224 27.3913 36.7654 26.2519 37.337 25.481 38.5092 23.8992 39.1961 23.1334 40.2686 22.2117 41.3546 21.2786 43.0517 20.0688 43.276 20.0678 43.3143 20.0678 43.4588 19.9988 43.5971 19.9147 43.8826 19.7402 43.8705 19.5231 43.5755 19.5231 43.277 19.5231 43.2662 19.3637 43.5495 19.1464 44.5752 18.359 45.8013 16.8423 46.4243 15.5904 46.9492 14.5353 46.9456 14.2294 46.411 14.5054 45.8905 14.775 45.8616 14.6086 46.189 13.2367 46.4971 11.9494 46.4387 11.7971 45.7479 12.0857 45.3021 12.2717 45.292 12.1821 45.6853 11.5307 46.445 10.2709 46.4545 8.077 45.7073 6.4499 45.5765 6.1658 45.4395 5.854 45.4026 5.7577 45.2302 5.3092 45.0699 5.5153 44.8672 6.4457 44.3947 8.6171 43.8722 9.9573 42.9489 11.3699 41.7873 13.1474 40.5112 14.0657 35.9466 16.4072 30.7263 19.0862 29.2448 20.2441 27.1487 23.2852 26.5206 24.1964 25.4827 25.316 25.072 25.5253 23.6178 26.2674 22.0678 24.6936 21.8843 22.2881 21.7614 20.6782 21.5314 20.4029 18.6848 18.4638 17.2058 17.4558 14.2483 14.9189 12.6899 13.3214 11.6964 12.3026 10.8315 10.9555 10.2605 9.5358 9.2984 7.1447 9.3904 3.8383 10.4792 1.6898 10.7667 1.1224 10.7465.9995 10.389 1.1435M11.2759 2.6994C10.7366 3.1279 10.7133 3.2625 10.7161 5.8943 10.7213 10.3576 11.2885 11.282 16.5478 15.3956 17.0132 15.7596 17.6782 16.2862 18.0257 16.5656 18.373 16.8451 19.393 17.647 20.2928 18.3479 21.1922 19.0483 21.9758 19.6594 22.0342 19.7058 22.3591 19.9642 22.36 19.9353 22.3384 11.1021 22.3267 6.4886 22.2902 2.6869 22.2571 2.6532 22.2235 2.62 19.788 2.5779 16.8445 2.5601L11.4924 2.5276 11.2759 2.6994M26.6491 2.6509C26.4949 2.8368 26.5665 22.6689 26.7216 22.6983 26.7959 22.7128 26.9131 22.5932 27.0263 22.388 28.3569 19.9787 30.0041 18.6006 33.9631 16.5843 38.6195 14.2128 42.6895 11.0938 43.6377 9.1694 43.8442 8.7503 43.9615 2.8877 43.7677 2.6546 43.6339 2.4939 26.7827 2.4901 26.6491 2.6509M5.0867 2.7527C4.9177 2.8209 4.9802 2.9873 5.254 3.1963 5.9082 3.6948 6.3755 4.791 6.5152 6.154 6.5998 6.9797 6.8236 6.969 7.0559 6.1279 7.3437 5.0873 7.6657 4.1695 7.9666 3.5331 8.2368 2.9606 8.2723 2.8341 8.1783 2.7747 8.0628 2.7018 5.2626 2.6816 5.0867 2.7527M43.0283 20.7633C40.9793 22.1226 39.5826 23.581 37.4265 26.6118 36.5808 27.801 35.034 29.7762 34.3177 30.5823 33.6438 31.3407 33.5958 31.5183 33.9672 31.872 35.2718 33.1145 36.1065 35.7822 35.5683 36.9896 34.8121 38.686 33.2697 38.6252 31.2099 36.8192 30.5771 36.264 30.4285 36.4883 30.77 37.4823 31.9094 40.7986 35.0388 40.4251 38.4593 36.5649 42.3023 32.2276 43.6186 28.7576 44.0078 21.9404 44.1167 20.0329 44.1209 20.0381 43.0283 20.7633M22.16 39.8778C21.6248 40.136 20.6554 40.8242 20.0735 41.3592 19.1782 42.1831 20.7744 42.4678 25.7435 42.3713 27.843 42.3307 27.9636 42.2713 27.3714 41.5676 27.0076 41.135 26.9263 41.1269 26.2805 41.4593L25.7011 41.7569 25.416 41.6019C25.2098 41.4896 25.0515 41.3005 24.8468 40.9206 24.1702 39.6643 23.302 39.328 22.16 39.8778M5.1013 21.8679C4.8451 22.2819 5.1363 26.2617 5.5364 27.8174 6.3755 31.0819 8.519 34.764 10.8432 36.9336 11.9848 37.9994 12.4455 37.8968 16.4768 35.6793 18.63 34.4948 18.6824 34.3654 17.2095 33.8612 13.9287 32.7375 11.5881 30.5473 7.9628 25.2085 6.0457 22.3848 5.3115 21.5278 5.1013 21.8679" fill="currentColor" stroke-width="0"/>
</g>

  <g><path d="M64.9183.8345C53.7464 1.4047 47.6433 9.9064 48.605 23.5585 49.3829 34.5991 55.1021 40.8313 64.988 41.4111 69.3505 41.6671 72.4683 40.5958 75.7827 37.7015 76.2326 37.3088 76.6673 36.9131 76.749 36.8221 77.0294 36.5098 77.0807 36.6027 77.7382 38.6233 78.0901 39.7051 78.4302 40.6513 78.4944 40.7261 78.6206 40.8742 83.7956 40.9401 84.0214 40.7967 84.1237 40.7317 84.184 37.4819 84.3133 24.9562L84.3639 20.0698 84.1568 19.9913C83.933 19.9062 66.7715 19.8773 66.4566 19.9618L66.2815 20.0086 66.2815 23.4572C66.2815 26.5296 66.295 26.9105 66.4046 26.9525 66.4726 26.9785 67.2609 26.9996 68.157 26.9996 69.9999 26.9996 69.9061 26.9581 69.6028 27.6431 68.6766 29.737 67.3465 30.593 65.574 30.2355 62.5753 29.6309 61.173 26.6562 61.1856 20.925 61.1977 15.3914 62.6842 12.4497 65.7421 11.9082 68.3518 11.4456 70.4836 13.2755 71.2631 16.6477 71.4785 17.5792 71.5421 17.732 71.7116 17.7314 72.1688 17.7309 83.8415 15.6175 83.8994 15.5254 83.9311 15.4755 83.9406 15.382 83.9209 15.3176 83.9008 15.2536 83.8148 14.868 83.7292 14.461 81.7811 5.1947 75.0485.3177 64.9183.8345" fill="currentColor" stroke-width="0"/>
</g>


</svg>
